<svg xmlns="http://www.w3.org/2000/svg" xmlns:xlink="http://www.w3.org/1999/xlink" width="500" zoomAndPan="magnify" viewBox="0 0 375 374.999991" height="500" preserveAspectRatio="xMidYMid meet" version="1.2"><defs/><g id="bee7df5dbb"><g style="fill:#5170ff;fill-opacity:1;"><g transform="translate(71.610009, 298.687282)"><path style="stroke:none" d="M 105.25 3.671875 C 86.757812 3.671875 68.535156 1.566406 50.578125 -2.640625 C 32.628906 -6.859375 18.21875 -12.367188 7.34375 -19.171875 L 30.59375 -72.203125 C 40.65625 -65.953125 52.617188 -60.988281 66.484375 -57.3125 C 80.359375 -53.644531 94.097656 -51.8125 107.703125 -51.8125 C 120.203125 -51.8125 129.101562 -53.101562 134.40625 -55.6875 C 139.71875 -58.269531 142.375 -62.007812 142.375 -66.90625 C 142.375 -71.800781 139.175781 -75.265625 132.78125 -77.296875 C 126.394531 -79.335938 116.265625 -81.3125 102.390625 -83.21875 C 84.710938 -85.394531 69.6875 -88.25 57.3125 -91.78125 C 44.9375 -95.320312 34.257812 -101.847656 25.28125 -111.359375 C 16.3125 -120.878906 11.828125 -134.207031 11.828125 -151.34375 C 11.828125 -165.488281 16.039062 -178.066406 24.46875 -189.078125 C 32.90625 -200.085938 45.210938 -208.789062 61.390625 -215.1875 C 77.578125 -221.582031 96.957031 -224.78125 119.53125 -224.78125 C 135.570312 -224.78125 151.476562 -223.144531 167.25 -219.875 C 183.03125 -216.613281 196.222656 -211.992188 206.828125 -206.015625 L 183.578125 -153.390625 C 163.992188 -164.265625 142.78125 -169.703125 119.9375 -169.703125 C 107.695312 -169.703125 98.71875 -168.273438 93 -165.421875 C 87.289062 -162.566406 84.4375 -158.828125 84.4375 -154.203125 C 84.4375 -149.035156 87.5625 -145.429688 93.8125 -143.390625 C 100.070312 -141.347656 110.410156 -139.238281 124.828125 -137.0625 C 143.046875 -134.34375 158.140625 -131.210938 170.109375 -127.671875 C 182.078125 -124.140625 192.476562 -117.679688 201.3125 -108.296875 C 210.15625 -98.921875 214.578125 -85.800781 214.578125 -68.9375 C 214.578125 -55.070312 210.359375 -42.628906 201.921875 -31.609375 C 193.492188 -20.597656 181.050781 -11.960938 164.59375 -5.703125 C 148.144531 0.546875 128.363281 3.671875 105.25 3.671875 Z M 105.25 3.671875 "/></g></g></g></svg>